<svg width="24" height="24" viewBox="0 0 24 24" fill="none" xmlns="http://www.w3.org/2000/svg">
<mask id="mask0_222_1054" style="mask-type:alpha" maskUnits="userSpaceOnUse" x="-1" y="0" width="25" height="24">
<rect x="-0.798828" width="24" height="24" fill="#D9D9D9"/>
</mask>
<g mask="url(#mask0_222_1054)">
<path d="M10.2012 13H5.20117C4.91784 13 4.68034 12.9042 4.48867 12.7125C4.29701 12.5208 4.20117 12.2833 4.20117 12C4.20117 11.7167 4.29701 11.4792 4.48867 11.2875C4.68034 11.0958 4.91784 11 5.20117 11H10.2012V6C10.2012 5.71667 10.297 5.47917 10.4887 5.2875C10.6803 5.09583 10.9178 5 11.2012 5C11.4845 5 11.722 5.09583 11.9137 5.2875C12.1053 5.47917 12.2012 5.71667 12.2012 6V11H17.2012C17.4845 11 17.722 11.0958 17.9137 11.2875C18.1053 11.4792 18.2012 11.7167 18.2012 12C18.2012 12.2833 18.1053 12.5208 17.9137 12.7125C17.722 12.9042 17.4845 13 17.2012 13H12.2012V18C12.2012 18.2833 12.1053 18.5208 11.9137 18.7125C11.722 18.9042 11.4845 19 11.2012 19C10.9178 19 10.6803 18.9042 10.4887 18.7125C10.297 18.5208 10.2012 18.2833 10.2012 18V13Z" fill="#318BA6"/>
</g>
</svg>
