<svg width="65" height="56" viewBox="0 0 65 56" fill="none" xmlns="http://www.w3.org/2000/svg">
<mask id="mask0_147_2060" style="mask-type:alpha" maskUnits="userSpaceOnUse" x="0" y="0" width="65" height="56">
<rect x="0.8125" y="0.75" width="63.375" height="54.5" fill="#D9D9D9"/>
</mask>
<g mask="url(#mask0_147_2060)">
<path d="M51.2122 20.8289H19.6716C17.3683 20.8289 15.3622 21.5281 13.6532 22.9264C11.9443 24.3248 11.0899 26.0996 11.0899 28.2509V42.3421L15.4922 28.1972C15.7894 27.2649 16.3373 26.5209 17.1361 25.9652C17.9348 25.4094 18.8171 25.1315 19.783 25.1315H48.5373C50.0605 25.1315 51.2586 25.7142 52.1316 26.8795C53.0047 28.0448 53.2369 29.3087 52.8282 30.6712L48.816 43.5791C48.5188 44.5113 47.9708 45.2553 47.1721 45.8111C46.3733 46.3668 45.491 46.6447 44.5251 46.6447H11.0899C9.86391 46.6447 8.81441 46.2234 7.94138 45.3808C7.06835 44.5382 6.63184 43.5253 6.63184 42.3421V16.5263C6.63184 15.343 7.06835 14.3301 7.94138 13.4875C8.81441 12.6449 9.86391 12.2236 11.0899 12.2236H22.625C23.2194 12.2236 23.786 12.3312 24.3247 12.5463C24.8633 12.7615 25.337 13.0662 25.7457 13.4606L28.922 16.5263H46.7541C47.9801 16.5263 49.0296 16.9476 49.9026 17.7902C50.7756 18.6328 51.2122 19.6457 51.2122 20.8289Z" fill="#318BA6"/>
</g>
</svg>
