<svg width="230" height="48" viewBox="0 0 230 48" fill="none" xmlns="http://www.w3.org/2000/svg">
<g filter="url(#filter0_d_197_902)">
<path d="M21.7812 26.4688C22.2969 26.375 22.5547 26.1172 22.5547 25.6953C22.5547 25.2578 22.414 24.7734 22.1327 24.2422C21.8671 23.6953 21.4688 23.1797 20.9375 22.6953C19.5469 21.4453 17.6641 20.8203 15.2891 20.8203C14.1172 20.8203 13.0233 21.0156 12.0077 21.4062C10.9296 20.8594 10.0703 19.9922 9.42965 18.8047C8.78905 17.6172 8.46875 16.3359 8.46875 14.9609C8.46875 11.3672 9.96875 8.59371 12.9688 6.64061C15.5468 4.96881 18.7265 4.13281 22.5077 4.13281C25.3202 4.13281 27.6875 4.43751 29.6094 5.04691C31.5312 5.64061 33.1016 6.40621 34.3203 7.34381C34.6797 8.37501 34.8594 9.44531 34.8594 10.5547C34.8594 11.6641 34.7109 12.6719 34.4141 13.5781C34.1172 14.4844 33.6875 15.2109 33.125 15.7578C32.5938 15.3672 31.6327 14.9688 30.2421 14.5625C28.8515 14.1562 27.5859 13.9531 26.4453 13.9531C25.3047 13.9531 24.539 14.0234 24.1483 14.1641C23.7733 14.3047 23.5858 14.5234 23.5858 14.8203C23.5858 14.9609 23.6094 15.0938 23.6562 15.2188C24.2031 15.0781 24.9061 15.0078 25.7655 15.0078C28.8124 15.0078 31.2968 15.7266 33.2188 17.1641C35.4843 18.8828 36.6171 21.4609 36.6171 24.8984C36.6171 27.9297 35.3906 30.4453 32.9375 32.4453C30.2812 34.5859 26.7109 35.6562 22.2266 35.6562C19.7578 35.6562 17.6172 35.4688 15.8047 35.0938C13.9922 34.7344 12.2265 34.0938 10.5077 33.1719C9.33585 31.4688 8.74995 29.7422 8.74995 27.9922C8.74995 26.2266 9.35155 24.7656 10.5547 23.6094C11.7578 22.4531 13.2344 21.875 14.9844 21.875C16.75 21.875 18.1875 22.2344 19.2969 22.9531C20.4219 23.6719 21.25 24.8438 21.7812 26.4688ZM63.6875 35.4219C61.5469 35.4219 59.8671 35.0703 58.6483 34.3672C57.3358 33.6328 56.625 32.5938 56.5156 31.25L56.3047 29.0469C57.7422 28.7031 58.9531 27.8125 59.9375 26.375C60.2031 25.9688 60.3358 25.6172 60.3358 25.3203C60.3358 24.9141 60.1328 24.7109 59.7266 24.7109H59.6561C59.6405 24.7266 59.6094 24.7344 59.5625 24.7344C58.4688 27.0312 56.6952 28.1797 54.2421 28.1797C52.9921 28.1797 51.9219 27.9062 51.0312 27.3594C50.1562 26.8125 49.3515 25.8672 48.6171 24.5234H48.4766C48.0547 24.5234 47.8438 24.7031 47.8438 25.0625C47.8438 25.3125 47.9375 25.5938 48.125 25.9062C48.75 26.9531 49.5311 27.7734 50.4688 28.3672C51.2031 28.8672 51.9766 29.1641 52.7891 29.2578L52.6016 33.6875C51.6641 34.2969 50.6719 34.7344 49.625 35C48.5938 35.2812 47.1172 35.4219 45.1953 35.4219C43.2891 35.4219 41.5858 35.0469 40.0858 34.2969C38.2421 33.375 37.3203 32.0938 37.3203 30.4531C37.3203 28.4062 37.7266 23.3516 38.5391 15.2891C38.9766 11.0859 39.328 8.14841 39.5938 6.47661C41.2031 5.03911 43.578 4.32031 46.7188 4.32031C48.9999 4.32031 50.8905 4.74221 52.3905 5.58591L53.6796 9.89841L52.8594 13.3438C52.7969 13.5781 52.7655 13.8047 52.7655 14.0234C52.7655 14.5703 53.078 14.8516 53.703 14.8672L55.9296 5.60941C56.5702 5.26561 57.4062 4.96881 58.4375 4.71881C59.4688 4.45311 60.5938 4.32031 61.8125 4.32031C64.0938 4.32031 65.7812 4.71091 66.875 5.49221C67.9844 6.25781 68.6406 7.55471 68.8438 9.38281C68.8906 9.72661 68.9609 10.2969 69.0547 11.0938C70.4766 23.3125 71.1875 30.5078 71.1875 32.6797C69.4531 34.5078 66.9531 35.4219 63.6875 35.4219ZM82.9061 4.76561H96.4299C96.8829 5.51561 97.219 6.33591 97.438 7.22661C97.656 8.10161 97.7659 8.89061 97.7659 9.59381C97.7659 11.1719 97.453 12.3594 96.828 13.1562C96.219 13.9531 95.359 14.3516 94.25 14.3516H84.8047C84.2266 14.3516 83.9375 14.5781 83.9375 15.0312V15.2188C83.9375 15.3125 83.953 15.375 83.9843 15.4062H95.188C95.469 15.8906 95.711 16.5 95.914 17.2344C96.102 18.0312 96.1949 18.7422 96.1949 19.3672C96.1949 21.2266 95.852 22.6797 95.164 23.7266H90.078C87.703 23.7266 86.0938 23.8203 85.25 24.0078C84.4062 24.1797 83.8828 24.3281 83.6797 24.4531C83.4766 24.5938 83.375 24.7734 83.375 24.9922C83.375 25.2109 83.4843 25.3828 83.703 25.5078C84.5155 25.2422 85.3672 25.0547 86.2578 24.9453C87.4297 24.8359 88.703 24.7812 90.078 24.7812H96.664C97.617 26.125 98.0939 27.7422 98.0939 29.6328C98.0939 30.6953 97.9609 31.7109 97.6949 32.6797C97.4299 33.6484 97.031 34.4297 96.5 35.0234H78.9453C77.0078 35.0234 75.453 34.5547 74.2811 33.6172C72.9999 32.6172 72.3593 31.1484 72.3593 29.2109V6.92191C72.3593 6.17191 73.2188 5.62501 74.9375 5.28121C76.6562 4.93751 79.3124 4.76561 82.9061 4.76561Z" fill="#C76B6B"/>
<path d="M112.93 27.2891V33.2188C112.211 33.8438 111.25 34.3672 110.047 34.7891C108.859 35.2109 107.406 35.4219 105.688 35.4219C103.984 35.4219 102.516 35.0391 101.281 34.2734C99.9222 33.4453 99.2422 32.2656 99.2422 30.7344V6.92191C99.2422 5.48441 102.766 4.76561 109.812 4.76561H123.57C124.023 5.59371 124.359 6.52341 124.578 7.55471C124.797 8.57031 124.906 9.48441 124.906 10.2969C124.906 13.875 123.336 15.6641 120.195 15.6641H112.086C111.492 15.6641 111.195 15.9141 111.195 16.4141V16.5781C111.195 16.6719 111.211 16.7344 111.242 16.7656H121.602C122.398 18.125 122.797 19.6562 122.797 21.3594C122.797 23.4844 122.32 25.1406 121.367 26.3281H109.883C109.758 26.4531 109.695 26.5938 109.695 26.75C109.695 27 109.883 27.1484 110.258 27.1953C110.648 27.2422 111.086 27.2656 111.57 27.2656C112.055 27.2656 112.508 27.2734 112.93 27.2891ZM139.766 9.00781V33.2188C139.047 33.8438 138.086 34.3672 136.883 34.7891C135.68 35.2109 134.219 35.4219 132.5 35.4219C130.781 35.4219 129.32 35.0391 128.117 34.2734C126.758 33.4453 126.078 32.2734 126.078 30.7578V6.54691C126.797 5.92191 127.758 5.39841 128.961 4.97661C130.164 4.55471 131.617 4.34381 133.32 4.34381C135.023 4.34381 136.5 4.71881 137.75 5.46881C139.094 6.32811 139.766 7.50781 139.766 9.00781ZM146.938 35.0234C145.203 35.0234 143.859 34.5625 142.906 33.6406C141.969 32.7188 141.5 31.3281 141.5 29.4688V6.54691C142.328 5.84381 143.336 5.30471 144.523 4.92971C145.727 4.53911 146.969 4.34381 148.25 4.34381C150.141 4.34381 151.742 4.81251 153.055 5.75001C154.477 6.81251 155.188 8.28121 155.188 10.1562V22.9766C154.312 23.0547 153.453 23.3047 152.609 23.7266C151.766 24.1328 151.344 24.5547 151.344 24.9922C151.344 25.2578 151.492 25.4844 151.789 25.6719C153.336 24.375 155.633 23.7266 158.68 23.7266H164.234C165.266 25.5391 165.781 27.3906 165.781 29.2812C165.781 30.2188 165.617 31.2578 165.289 32.3984C164.961 33.5391 164.523 34.4141 163.977 35.0234H146.938ZM177.312 4.76561H190.836C191.289 5.51561 191.625 6.33591 191.844 7.22661C192.062 8.10161 192.172 8.89061 192.172 9.59381C192.172 11.1719 191.859 12.3594 191.234 13.1562C190.625 13.9531 189.766 14.3516 188.656 14.3516H179.211C178.633 14.3516 178.344 14.5781 178.344 15.0312V15.2188C178.344 15.3125 178.359 15.375 178.391 15.4062H189.594C189.875 15.8906 190.117 16.5 190.32 17.2344C190.508 18.0312 190.602 18.7422 190.602 19.3672C190.602 21.2266 190.258 22.6797 189.57 23.7266H184.484C182.109 23.7266 180.5 23.8203 179.656 24.0078C178.812 24.1797 178.289 24.3281 178.086 24.4531C177.883 24.5938 177.781 24.7734 177.781 24.9922C177.781 25.2109 177.891 25.3828 178.109 25.5078C178.922 25.2422 179.773 25.0547 180.664 24.9453C181.836 24.8359 183.109 24.7812 184.484 24.7812H191.07C192.023 26.125 192.5 27.7422 192.5 29.6328C192.5 30.6953 192.367 31.7109 192.102 32.6797C191.836 33.6484 191.438 34.4297 190.906 35.0234H173.352C171.414 35.0234 169.859 34.5547 168.688 33.6172C167.406 32.6172 166.766 31.1484 166.766 29.2109V6.92191C166.766 6.17191 167.625 5.62501 169.344 5.28121C171.062 4.93751 173.719 4.76561 177.312 4.76561ZM206.375 26.4688C206.891 26.375 207.148 26.1172 207.148 25.6953C207.148 25.2578 207.008 24.7734 206.727 24.2422C206.461 23.6953 206.062 23.1797 205.531 22.6953C204.141 21.4453 202.258 20.8203 199.883 20.8203C198.711 20.8203 197.617 21.0156 196.602 21.4062C195.523 20.8594 194.664 19.9922 194.023 18.8047C193.383 17.6172 193.062 16.3359 193.062 14.9609C193.062 11.3672 194.562 8.59371 197.562 6.64061C200.141 4.96881 203.32 4.13281 207.102 4.13281C209.914 4.13281 212.281 4.43751 214.203 5.04691C216.125 5.64061 217.695 6.40621 218.914 7.34381C219.273 8.37501 219.453 9.44531 219.453 10.5547C219.453 11.6641 219.305 12.6719 219.008 13.5781C218.711 14.4844 218.281 15.2109 217.719 15.7578C217.188 15.3672 216.227 14.9688 214.836 14.5625C213.445 14.1562 212.18 13.9531 211.039 13.9531C209.898 13.9531 209.133 14.0234 208.742 14.1641C208.367 14.3047 208.18 14.5234 208.18 14.8203C208.18 14.9609 208.203 15.0938 208.25 15.2188C208.797 15.0781 209.5 15.0078 210.359 15.0078C213.406 15.0078 215.891 15.7266 217.812 17.1641C220.078 18.8828 221.211 21.4609 221.211 24.8984C221.211 27.9297 219.984 30.4453 217.531 32.4453C214.875 34.5859 211.305 35.6562 206.82 35.6562C204.352 35.6562 202.211 35.4688 200.398 35.0938C198.586 34.7344 196.82 34.0938 195.102 33.1719C193.93 31.4688 193.344 29.7422 193.344 27.9922C193.344 26.2266 193.945 24.7656 195.148 23.6094C196.352 22.4531 197.828 21.875 199.578 21.875C201.344 21.875 202.781 22.2344 203.891 22.9531C205.016 23.6719 205.844 24.8438 206.375 26.4688Z" fill="#318BA6"/>
<mask id="mask0_197_902" style="mask-type:luminance" maskUnits="userSpaceOnUse" x="4" y="0" width="222" height="40">
<path d="M226 0H4V40H226V0Z" fill="white"/>
<path d="M21.7812 26.4688C22.2969 26.375 22.5547 26.1172 22.5547 25.6953C22.5547 25.2578 22.414 24.7734 22.1327 24.2422C21.8671 23.6953 21.4688 23.1797 20.9375 22.6953C19.5469 21.4453 17.6641 20.8203 15.2891 20.8203C14.1172 20.8203 13.0233 21.0156 12.0077 21.4062C10.9296 20.8594 10.0703 19.9922 9.42965 18.8047C8.78905 17.6172 8.46875 16.3359 8.46875 14.9609C8.46875 11.3672 9.96875 8.59371 12.9688 6.64061C15.5468 4.96881 18.7265 4.13281 22.5077 4.13281C25.3202 4.13281 27.6875 4.43751 29.6094 5.04691C31.5312 5.64061 33.1016 6.40621 34.3203 7.34381C34.6797 8.37501 34.8594 9.44531 34.8594 10.5547C34.8594 11.6641 34.7109 12.6719 34.4141 13.5781C34.1172 14.4844 33.6875 15.2109 33.125 15.7578C32.5938 15.3672 31.6327 14.9688 30.2421 14.5625C28.8515 14.1562 27.5859 13.9531 26.4453 13.9531C25.3047 13.9531 24.539 14.0234 24.1483 14.1641C23.7733 14.3047 23.5858 14.5234 23.5858 14.8203C23.5858 14.9609 23.6094 15.0938 23.6562 15.2188C24.2031 15.0781 24.9061 15.0078 25.7655 15.0078C28.8124 15.0078 31.2968 15.7266 33.2188 17.1641C35.4843 18.8828 36.6171 21.4609 36.6171 24.8984C36.6171 27.9297 35.3906 30.4453 32.9375 32.4453C30.2812 34.5859 26.7109 35.6562 22.2266 35.6562C19.7578 35.6562 17.6172 35.4688 15.8047 35.0938C13.9922 34.7344 12.2265 34.0938 10.5077 33.1719C9.33585 31.4688 8.74995 29.7422 8.74995 27.9922C8.74995 26.2266 9.35155 24.7656 10.5547 23.6094C11.7578 22.4531 13.2344 21.875 14.9844 21.875C16.75 21.875 18.1875 22.2344 19.2969 22.9531C20.4219 23.6719 21.25 24.8438 21.7812 26.4688ZM63.6875 35.4219C61.5469 35.4219 59.8671 35.0703 58.6483 34.3672C57.3358 33.6328 56.625 32.5938 56.5156 31.25L56.3047 29.0469C57.7422 28.7031 58.9531 27.8125 59.9375 26.375C60.2031 25.9688 60.3358 25.6172 60.3358 25.3203C60.3358 24.9141 60.1328 24.7109 59.7266 24.7109H59.6561C59.6405 24.7266 59.6094 24.7344 59.5625 24.7344C58.4688 27.0312 56.6952 28.1797 54.2421 28.1797C52.9921 28.1797 51.9219 27.9062 51.0312 27.3594C50.1562 26.8125 49.3515 25.8672 48.6171 24.5234H48.4766C48.0547 24.5234 47.8438 24.7031 47.8438 25.0625C47.8438 25.3125 47.9375 25.5938 48.125 25.9062C48.75 26.9531 49.5311 27.7734 50.4688 28.3672C51.2031 28.8672 51.9766 29.1641 52.7891 29.2578L52.6016 33.6875C51.6641 34.2969 50.6719 34.7344 49.625 35C48.5938 35.2812 47.1172 35.4219 45.1953 35.4219C43.2891 35.4219 41.5858 35.0469 40.0858 34.2969C38.2421 33.375 37.3203 32.0938 37.3203 30.4531C37.3203 28.4062 37.7266 23.3516 38.5391 15.2891C38.9766 11.0859 39.328 8.14841 39.5938 6.47661C41.2031 5.03911 43.578 4.32031 46.7188 4.32031C48.9999 4.32031 50.8905 4.74221 52.3905 5.58591L53.6796 9.89841L52.8594 13.3438C52.7969 13.5781 52.7655 13.8047 52.7655 14.0234C52.7655 14.5703 53.078 14.8516 53.703 14.8672L55.9296 5.60941C56.5702 5.26561 57.4062 4.96881 58.4375 4.71881C59.4688 4.45311 60.5938 4.32031 61.8125 4.32031C64.0938 4.32031 65.7812 4.71091 66.875 5.49221C67.9844 6.25781 68.6406 7.55471 68.8438 9.38281C68.8906 9.72661 68.9609 10.2969 69.0547 11.0938C70.4766 23.3125 71.1875 30.5078 71.1875 32.6797C69.4531 34.5078 66.9531 35.4219 63.6875 35.4219ZM82.9061 4.76561H96.4299C96.8829 5.51561 97.219 6.33591 97.438 7.22661C97.656 8.10161 97.7659 8.89061 97.7659 9.59381C97.7659 11.1719 97.453 12.3594 96.828 13.1562C96.219 13.9531 95.359 14.3516 94.25 14.3516H84.8047C84.2266 14.3516 83.9375 14.5781 83.9375 15.0312V15.2188C83.9375 15.3125 83.953 15.375 83.9843 15.4062H95.188C95.469 15.8906 95.711 16.5 95.914 17.2344C96.102 18.0312 96.1949 18.7422 96.1949 19.3672C96.1949 21.2266 95.852 22.6797 95.164 23.7266H90.078C87.703 23.7266 86.0938 23.8203 85.25 24.0078C84.4062 24.1797 83.8828 24.3281 83.6797 24.4531C83.4766 24.5938 83.375 24.7734 83.375 24.9922C83.375 25.2109 83.4843 25.3828 83.703 25.5078C84.5155 25.2422 85.3672 25.0547 86.2578 24.9453C87.4297 24.8359 88.703 24.7812 90.078 24.7812H96.664C97.617 26.125 98.0939 27.7422 98.0939 29.6328C98.0939 30.6953 97.9609 31.7109 97.6949 32.6797C97.4299 33.6484 97.031 34.4297 96.5 35.0234H78.9453C77.0078 35.0234 75.453 34.5547 74.2811 33.6172C72.9999 32.6172 72.3593 31.1484 72.3593 29.2109V6.92191C72.3593 6.17191 73.2188 5.62501 74.9375 5.28121C76.6562 4.93751 79.3124 4.76561 82.9061 4.76561Z" fill="black"/>
<path d="M112.93 27.2891V33.2188C112.211 33.8438 111.25 34.3672 110.047 34.7891C108.859 35.2109 107.406 35.4219 105.688 35.4219C103.984 35.4219 102.516 35.0391 101.281 34.2734C99.9222 33.4453 99.2422 32.2656 99.2422 30.7344V6.92191C99.2422 5.48441 102.766 4.76561 109.812 4.76561H123.57C124.023 5.59371 124.359 6.52341 124.578 7.55471C124.797 8.57031 124.906 9.48441 124.906 10.2969C124.906 13.875 123.336 15.6641 120.195 15.6641H112.086C111.492 15.6641 111.195 15.9141 111.195 16.4141V16.5781C111.195 16.6719 111.211 16.7344 111.242 16.7656H121.602C122.398 18.125 122.797 19.6562 122.797 21.3594C122.797 23.4844 122.32 25.1406 121.367 26.3281H109.883C109.758 26.4531 109.695 26.5938 109.695 26.75C109.695 27 109.883 27.1484 110.258 27.1953C110.648 27.2422 111.086 27.2656 111.57 27.2656C112.055 27.2656 112.508 27.2734 112.93 27.2891ZM139.766 9.00781V33.2188C139.047 33.8438 138.086 34.3672 136.883 34.7891C135.68 35.2109 134.219 35.4219 132.5 35.4219C130.781 35.4219 129.32 35.0391 128.117 34.2734C126.758 33.4453 126.078 32.2734 126.078 30.7578V6.54691C126.797 5.92191 127.758 5.39841 128.961 4.97661C130.164 4.55471 131.617 4.34381 133.32 4.34381C135.023 4.34381 136.5 4.71881 137.75 5.46881C139.094 6.32811 139.766 7.50781 139.766 9.00781ZM146.938 35.0234C145.203 35.0234 143.859 34.5625 142.906 33.6406C141.969 32.7188 141.5 31.3281 141.5 29.4688V6.54691C142.328 5.84381 143.336 5.30471 144.523 4.92971C145.727 4.53911 146.969 4.34381 148.25 4.34381C150.141 4.34381 151.742 4.81251 153.055 5.75001C154.477 6.81251 155.188 8.28121 155.188 10.1562V22.9766C154.312 23.0547 153.453 23.3047 152.609 23.7266C151.766 24.1328 151.344 24.5547 151.344 24.9922C151.344 25.2578 151.492 25.4844 151.789 25.6719C153.336 24.375 155.633 23.7266 158.68 23.7266H164.234C165.266 25.5391 165.781 27.3906 165.781 29.2812C165.781 30.2188 165.617 31.2578 165.289 32.3984C164.961 33.5391 164.523 34.4141 163.977 35.0234H146.938ZM177.312 4.76561H190.836C191.289 5.51561 191.625 6.33591 191.844 7.22661C192.062 8.10161 192.172 8.89061 192.172 9.59381C192.172 11.1719 191.859 12.3594 191.234 13.1562C190.625 13.9531 189.766 14.3516 188.656 14.3516H179.211C178.633 14.3516 178.344 14.5781 178.344 15.0312V15.2188C178.344 15.3125 178.359 15.375 178.391 15.4062H189.594C189.875 15.8906 190.117 16.5 190.32 17.2344C190.508 18.0312 190.602 18.7422 190.602 19.3672C190.602 21.2266 190.258 22.6797 189.57 23.7266H184.484C182.109 23.7266 180.5 23.8203 179.656 24.0078C178.812 24.1797 178.289 24.3281 178.086 24.4531C177.883 24.5938 177.781 24.7734 177.781 24.9922C177.781 25.2109 177.891 25.3828 178.109 25.5078C178.922 25.2422 179.773 25.0547 180.664 24.9453C181.836 24.8359 183.109 24.7812 184.484 24.7812H191.07C192.023 26.125 192.5 27.7422 192.5 29.6328C192.5 30.6953 192.367 31.7109 192.102 32.6797C191.836 33.6484 191.438 34.4297 190.906 35.0234H173.352C171.414 35.0234 169.859 34.5547 168.688 33.6172C167.406 32.6172 166.766 31.1484 166.766 29.2109V6.92191C166.766 6.17191 167.625 5.62501 169.344 5.28121C171.062 4.93751 173.719 4.76561 177.312 4.76561ZM206.375 26.4688C206.891 26.375 207.148 26.1172 207.148 25.6953C207.148 25.2578 207.008 24.7734 206.727 24.2422C206.461 23.6953 206.062 23.1797 205.531 22.6953C204.141 21.4453 202.258 20.8203 199.883 20.8203C198.711 20.8203 197.617 21.0156 196.602 21.4062C195.523 20.8594 194.664 19.9922 194.023 18.8047C193.383 17.6172 193.062 16.3359 193.062 14.9609C193.062 11.3672 194.562 8.59371 197.562 6.64061C200.141 4.96881 203.32 4.13281 207.102 4.13281C209.914 4.13281 212.281 4.43751 214.203 5.04691C216.125 5.64061 217.695 6.40621 218.914 7.34381C219.273 8.37501 219.453 9.44531 219.453 10.5547C219.453 11.6641 219.305 12.6719 219.008 13.5781C218.711 14.4844 218.281 15.2109 217.719 15.7578C217.188 15.3672 216.227 14.9688 214.836 14.5625C213.445 14.1562 212.18 13.9531 211.039 13.9531C209.898 13.9531 209.133 14.0234 208.742 14.1641C208.367 14.3047 208.18 14.5234 208.18 14.8203C208.18 14.9609 208.203 15.0938 208.25 15.2188C208.797 15.0781 209.5 15.0078 210.359 15.0078C213.406 15.0078 215.891 15.7266 217.812 17.1641C220.078 18.8828 221.211 21.4609 221.211 24.8984C221.211 27.9297 219.984 30.4453 217.531 32.4453C214.875 34.5859 211.305 35.6562 206.82 35.6562C204.352 35.6562 202.211 35.4688 200.398 35.0938C198.586 34.7344 196.82 34.0938 195.102 33.1719C193.93 31.4688 193.344 29.7422 193.344 27.9922C193.344 26.2266 193.945 24.7656 195.148 23.6094C196.352 22.4531 197.828 21.875 199.578 21.875C201.344 21.875 202.781 22.2344 203.891 22.9531C205.016 23.6719 205.844 24.8438 206.375 26.4688Z" fill="black"/>
</mask>
<g mask="url(#mask0_197_902)">
<path d="M21.7812 26.4688L17.9792 27.7117L19.0636 31.0284L22.4967 30.4042L21.7812 26.4688ZM22.1327 24.2422L18.5347 25.9898L18.5651 26.0523L18.5977 26.1137L22.1327 24.2422ZM20.9375 22.6953L23.6325 19.7395L23.622 19.7299L23.6115 19.7205L20.9375 22.6953ZM12.0077 21.4062L10.1982 24.9736L11.784 25.7779L13.4437 25.1396L12.0077 21.4062ZM12.9688 6.6406L10.7924 3.28452L10.7863 3.28845L12.9688 6.6406ZM29.6094 5.0469L28.4003 8.8598L28.4145 8.8643L28.4286 8.8686L29.6094 5.0469ZM34.3203 7.3438L38.0975 6.0274L37.7048 4.9007L36.7592 4.1733L34.3203 7.3438ZM33.125 15.7578L30.7554 18.9804L33.4845 20.9871L35.9132 18.6258L33.125 15.7578ZM24.1483 14.1641L22.7936 10.4005L22.7687 10.4095L22.7439 10.4187L24.1483 14.1641ZM23.6562 15.2188L19.9109 16.6232L21.1725 19.9875L24.6524 19.0927L23.6562 15.2188ZM33.2188 17.1641L35.6362 13.9773L35.6255 13.9691L35.6146 13.9609L33.2188 17.1641ZM32.9375 32.4453L35.4473 35.5598L35.4562 35.5527L35.465 35.5455L32.9375 32.4453ZM15.8047 35.0938L16.6151 31.1767L16.5989 31.1734L16.5826 31.1701L15.8047 35.0938ZM10.5077 33.1719L7.21245 35.4393L7.76235 36.2384L8.61705 36.6968L10.5077 33.1719ZM19.2969 22.9531L17.1219 26.3101L17.1326 26.3171L17.1432 26.3239L19.2969 22.9531ZM22.4967 30.4042C23.2197 30.2728 24.2842 29.939 25.1898 29.0335C26.1874 28.0359 26.5546 26.7867 26.5546 25.6953H18.5547C18.5547 25.0258 18.7931 24.1165 19.5329 23.3767C20.1806 22.7289 20.8583 22.571 21.0657 22.5333L22.4967 30.4042ZM26.5546 25.6953C26.5546 24.4075 26.1459 23.2737 25.6679 22.3706L18.5977 26.1137C18.6342 26.1827 18.6263 26.183 18.6077 26.1191C18.5885 26.053 18.5547 25.9064 18.5547 25.6953H26.5546ZM25.7308 22.4946C25.2071 21.4162 24.4716 20.5045 23.6325 19.7395L18.2425 25.6511C18.4659 25.8549 18.5272 25.9744 18.5347 25.9898L25.7308 22.4946ZM23.6115 19.7205C21.3045 17.6468 18.3756 16.8203 15.2891 16.8203V24.8203C16.9526 24.8203 17.7892 25.2438 18.2635 25.6702L23.6115 19.7205ZM15.2891 16.8203C13.6642 16.8203 12.0798 17.0929 10.5718 17.6729L13.4437 25.1396C13.967 24.9384 14.5701 24.8203 15.2891 24.8203V16.8203ZM13.8173 17.8389C13.5494 17.703 13.2505 17.4624 12.9501 16.9055L5.90925 20.7038C6.89005 22.522 8.30995 24.0157 10.1982 24.9736L13.8173 17.8389ZM12.9501 16.9055C12.6305 16.313 12.4688 15.6861 12.4688 14.9609H4.46875C4.46875 16.9858 4.94765 18.9213 5.90925 20.7038L12.9501 16.9055ZM12.4688 14.9609C12.4688 12.7136 13.2902 11.2043 15.1511 9.9928L10.7863 3.28845C6.64715 5.9832 4.46875 10.0207 4.46875 14.9609H12.4688ZM15.1451 9.9967C16.9399 8.8328 19.3201 8.1328 22.5077 8.1328V0.132812C18.1329 0.132812 14.1538 1.10465 10.7924 3.28452L15.1451 9.9967ZM22.5077 8.1328C25.059 8.1328 26.9899 8.4126 28.4003 8.8598L30.8184 1.23395C28.385 0.462423 25.5814 0.132812 22.5077 0.132812V8.1328ZM28.4286 8.8686C30.0283 9.3629 31.1363 9.941 31.8815 10.5142L36.7592 4.1733C35.0668 2.87147 33.0341 1.91838 30.7901 1.22511L28.4286 8.8686ZM30.543 8.6601C30.7525 9.2613 30.8594 9.8862 30.8594 10.5547H38.8594C38.8594 9.0044 38.6067 7.4887 38.0975 6.0274L30.543 8.6601ZM30.8594 10.5547C30.8594 11.3086 30.7585 11.8881 30.6128 12.3329L38.2153 14.8234C38.6633 13.4556 38.8594 12.0195 38.8594 10.5547H30.8594ZM30.6128 12.3329C30.4744 12.7554 30.3455 12.8812 30.3367 12.8898L35.9132 18.6258C37.0294 17.5406 37.7599 16.2134 38.2153 14.8234L30.6128 12.3329ZM35.4945 12.5352C34.3523 11.6954 32.7959 11.1413 31.3638 10.723L29.1204 18.402C29.726 18.5789 30.1679 18.7341 30.4738 18.861C30.8068 18.999 30.8532 19.0523 30.7554 18.9804L35.4945 12.5352ZM31.3638 10.723C29.7021 10.2375 28.0518 9.9531 26.4453 9.9531V17.9531C27.1201 17.9531 28.0009 18.075 29.1204 18.402L31.3638 10.723ZM26.4453 9.9531C25.3841 9.9531 23.9358 9.9893 22.7936 10.4005L25.5033 17.9276C25.4092 17.9615 25.3376 17.9812 25.2972 17.9915C25.2558 18.002 25.2318 18.0064 25.2295 18.0068C25.2283 18.007 25.2744 17.9989 25.3814 17.9891C25.5998 17.969 25.9449 17.9531 26.4453 17.9531V9.9531ZM22.7439 10.4187C22.1585 10.6383 21.3604 11.0477 20.6895 11.8304C19.954 12.6885 19.5858 13.7488 19.5858 14.8203H27.5858C27.5858 15.595 27.3115 16.3974 26.7635 17.0368C26.2801 17.6007 25.7633 17.8305 25.5528 17.9094L22.7439 10.4187ZM19.5858 14.8203C19.5858 15.4147 19.6868 16.0255 19.9109 16.6232L27.4016 13.8143C27.532 14.162 27.5858 14.5072 27.5858 14.8203H19.5858ZM24.6524 19.0927C24.7517 19.0672 25.0869 19.0078 25.7655 19.0078V11.0078C24.7254 11.0078 23.6546 11.0891 22.6601 11.3448L24.6524 19.0927ZM25.7655 19.0078C28.1837 19.0078 29.7597 19.572 30.8228 20.3672L35.6146 13.9609C32.834 11.8811 29.4411 11.0078 25.7655 11.0078V19.0078ZM30.8012 20.3508C31.858 21.1525 32.6171 22.4199 32.6171 24.8984H40.6171C40.6171 20.502 39.1106 16.6131 35.6362 13.9773L30.8012 20.3508ZM32.6171 24.8984C32.6171 26.6676 31.9788 28.066 30.4099 29.3451L35.465 35.5455C38.8024 32.8246 40.6171 29.1918 40.6171 24.8984H32.6171ZM30.4276 29.3308C28.6789 30.74 26.0869 31.6562 22.2266 31.6562V39.6562C27.3349 39.6562 31.8835 38.4319 35.4473 35.5598L30.4276 29.3308ZM22.2266 31.6562C19.946 31.6562 18.0896 31.4818 16.6151 31.1767L14.9943 39.0108C17.1447 39.4557 19.5697 39.6562 22.2266 39.6562V31.6562ZM16.5826 31.1701C15.1798 30.892 13.7875 30.392 12.3985 29.6469L8.61705 36.6968C10.6656 37.7955 12.8045 38.5768 15.0266 39.0174L16.5826 31.1701ZM13.8031 30.9045C13.005 29.7446 12.75 28.7942 12.75 27.9922H4.74995C4.74995 30.6902 5.66675 33.1929 7.21245 35.4393L13.8031 30.9045ZM12.75 27.9922C12.75 27.2443 12.9576 26.8479 13.3264 26.4934L7.78295 20.7253C5.74555 22.6834 4.74995 25.2088 4.74995 27.9922H12.75ZM13.3264 26.4934C13.7452 26.0909 14.212 25.875 14.9844 25.875V17.875C12.2567 17.875 9.77035 18.8153 7.78295 20.7253L13.3264 26.4934ZM14.9844 25.875C16.2312 25.875 16.8442 26.1302 17.1219 26.3101L21.4718 19.5961C19.5308 18.3385 17.2688 17.875 14.9844 17.875V25.875ZM17.1432 26.3239C17.2927 26.4194 17.653 26.7141 17.9792 27.7117L25.5831 25.2258C24.8468 22.9734 23.5508 20.9243 21.4503 19.5823L17.1432 26.3239ZM58.6483 34.3672L60.6473 30.9024L60.6244 30.8893L60.6016 30.8765L58.6483 34.3672ZM56.5156 31.25L60.5024 30.9255L60.5 30.8971L60.4973 30.8688L56.5156 31.25ZM56.3047 29.0469L55.3744 25.1566L51.9914 25.9655L52.3228 29.4281L56.3047 29.0469ZM59.9375 26.375L63.2378 28.635L63.262 28.5998L63.2854 28.564L59.9375 26.375ZM59.6561 24.7109V20.7109H57.9993L56.8277 21.8825L59.6561 24.7109ZM59.5625 24.7344V20.7344H57.0369L55.951 23.0146L59.5625 24.7344ZM51.0312 27.3594L48.9113 30.7514L48.9247 30.7598L48.9382 30.7681L51.0312 27.3594ZM48.6171 24.5234L52.1272 22.6052L50.9894 20.5234H48.6171V24.5234ZM48.125 25.9062L51.5595 23.8558L51.555 23.8483L48.125 25.9062ZM50.4688 28.3672L52.7198 25.0608L52.665 25.0234L52.609 24.9879L50.4688 28.3672ZM52.7891 29.2578L56.7854 29.427L56.9428 25.7105L53.2476 25.2842L52.7891 29.2578ZM52.6016 33.6875L54.7815 37.0413L56.5108 35.9173L56.5979 33.8567L52.6016 33.6875ZM49.625 35L48.6412 31.1229L48.6068 31.1316L48.5724 31.1409L49.625 35ZM38.5391 15.2891L34.5605 14.8749L34.5592 14.888L38.5391 15.2891ZM39.5938 6.4766L36.9291 3.49333L35.8667 4.4422L35.6432 5.8489L39.5938 6.4766ZM52.3905 5.5859L56.223 4.4404L55.7602 2.89195L54.3517 2.09964L52.3905 5.5859ZM53.6796 9.8984L57.5709 10.8249L57.8195 9.781L57.5121 8.7529L53.6796 9.8984ZM52.8594 13.3438L56.7242 14.3744L56.7381 14.3225L56.7506 14.2702L52.8594 13.3438ZM53.703 14.8672L53.6031 18.8659L56.8359 18.9468L57.5922 15.8025L53.703 14.8672ZM55.9296 5.6094L54.0383 2.08473L52.4595 2.93192L52.0406 4.674L55.9296 5.6094ZM58.4375 4.7188L59.3798 8.6062L59.4076 8.5994L59.4352 8.5923L58.4375 4.7188ZM66.875 5.4922L64.55 8.7471L64.5764 8.7659L64.6029 8.7843L66.875 5.4922ZM68.8438 9.3828L64.8682 9.8245L64.8737 9.874L64.8804 9.9233L68.8438 9.3828ZM69.0547 11.0938L73.0278 10.6314L73.0273 10.6264L69.0547 11.0938ZM71.1875 32.6797L74.0894 35.4327L75.1875 34.2752V32.6797H71.1875ZM63.6875 31.4219C61.9118 31.4219 61.0212 31.1181 60.6473 30.9024L56.6494 37.8319C58.7131 39.0225 61.182 39.4219 63.6875 39.4219V31.4219ZM60.6016 30.8765C60.4893 30.8136 60.4329 30.7684 60.4132 30.7511C60.3952 30.7353 60.4079 30.7432 60.432 30.7784C60.4434 30.7951 60.4553 30.8148 60.4664 30.8368C60.4775 30.8589 60.4861 30.8799 60.4925 30.8986C60.5061 30.9381 60.5046 30.9515 60.5024 30.9255L52.5288 31.5745C52.7602 34.4171 54.3774 36.561 56.6952 37.8579L60.6016 30.8765ZM60.4973 30.8688L60.2864 28.6656L52.3228 29.4281L52.5337 31.6312L60.4973 30.8688ZM57.235 32.9372C59.8058 32.3224 61.7992 30.7359 63.2378 28.635L56.6371 24.115C56.107 24.8891 55.6786 25.0838 55.3744 25.1566L57.235 32.9372ZM63.2854 28.564C63.7322 27.8806 64.3358 26.7453 64.3358 25.3203H56.3358C56.3358 24.8765 56.4336 24.554 56.4944 24.393C56.5555 24.2314 56.6068 24.1598 56.5896 24.186L63.2854 28.564ZM64.3358 25.3203C64.3358 24.5006 64.1283 23.1511 63.012 22.0349C61.8957 20.9186 60.5463 20.7109 59.7266 20.7109V28.7109C59.3131 28.7109 58.2683 28.6049 57.3552 27.6917C56.442 26.7786 56.3358 25.7338 56.3358 25.3203H64.3358ZM59.7266 20.7109H59.6561V28.7109H59.7266V20.7109ZM56.8277 21.8825C57.5154 21.1948 58.2656 20.9443 58.651 20.8479C59.0605 20.7455 59.3929 20.7344 59.5625 20.7344V28.7344C59.779 28.7344 60.1504 28.7193 60.5912 28.6091C61.0079 28.5049 61.7814 28.2427 62.4847 27.5394L56.8277 21.8825ZM55.951 23.0146C55.657 23.6319 55.3869 23.8643 55.2379 23.9609C55.0977 24.0516 54.8241 24.1797 54.2421 24.1797V32.1797C56.1132 32.1797 57.9531 31.7335 59.5863 30.6758C61.2107 29.6239 62.374 28.1338 63.1738 26.4541L55.951 23.0146ZM54.2421 24.1797C53.585 24.1797 53.2714 24.0411 53.1242 23.9507L48.9382 30.7681C50.5723 31.7714 52.3991 32.1797 54.2421 32.1797V24.1797ZM53.1511 23.9674C53.0732 23.9187 52.6802 23.617 52.1272 22.6052L45.1072 26.4417C46.0229 28.1174 47.2392 29.7063 48.9113 30.7514L53.1511 23.9674ZM48.6171 20.5234H48.4766V28.5234H48.6171V20.5234ZM48.4766 20.5234C47.7919 20.5234 46.5322 20.6557 45.4081 21.6132C44.1612 22.6754 43.8438 24.0835 43.8438 25.0625H51.8438C51.8438 25.6821 51.6317 26.8207 50.5957 27.7032C49.6826 28.4811 48.7394 28.5234 48.4766 28.5234V20.5234ZM43.8438 25.0625C43.8438 26.2961 44.2949 27.2973 44.695 27.9642L51.555 23.8483C51.5801 23.8902 51.8438 24.3289 51.8438 25.0625H43.8438ZM44.6904 27.9567C45.6045 29.4878 46.8106 30.7852 48.3284 31.7465L52.609 24.9879C52.2518 24.7617 51.8954 24.4185 51.5595 23.8558L44.6904 27.9567ZM48.2176 31.6736C49.4396 32.5056 50.8209 33.0573 52.3306 33.2314L53.2476 25.2842C53.1322 25.2709 52.9666 25.2288 52.7198 25.0608L48.2176 31.6736ZM48.7925 29.0887L48.605 33.5183L56.5979 33.8567L56.7854 29.427L48.7925 29.0887ZM50.4216 30.3337C49.8384 30.7128 49.2485 30.9688 48.6412 31.1229L50.6087 38.8771C52.0951 38.5 53.4897 37.8809 54.7815 37.0413L50.4216 30.3337ZM48.5724 31.1409C48.0541 31.2823 46.9963 31.4219 45.1953 31.4219V39.4219C47.2381 39.4219 49.1333 39.2802 50.6775 38.8591L48.5724 31.1409ZM45.1953 31.4219C43.8247 31.4219 42.7477 31.1556 41.8748 30.7192L38.2971 37.8746C40.4241 38.9381 42.7535 39.4219 45.1953 39.4219V31.4219ZM41.8748 30.7192C41.361 30.4623 41.2432 30.2871 41.2585 30.3084C41.2686 30.3224 41.2913 30.3603 41.3078 30.4127C41.3238 30.4635 41.3203 30.484 41.3203 30.4531H33.3203C33.3203 34.0232 35.5134 36.4828 38.2971 37.8746L41.8748 30.7192ZM41.3203 30.4531C41.3203 28.6525 41.699 23.8261 42.5189 15.6901L34.5592 14.888C33.7541 22.877 33.3203 28.16 33.3203 30.4531H41.3203ZM42.5176 15.7032C42.9554 11.4972 43.2974 8.6574 43.5442 7.1042L35.6432 5.8489C35.3587 7.6394 34.9977 10.6746 34.5605 14.8749L42.5176 15.7032ZM42.2584 9.4598C42.8619 8.9207 44.1207 8.3203 46.7188 8.3203V0.320312C43.0354 0.320312 39.5443 1.15742 36.9291 3.49333L42.2584 9.4598ZM46.7188 8.3203C48.5292 8.3203 49.6921 8.6574 50.4296 9.0722L54.3517 2.09964C52.0892 0.826992 49.4708 0.320312 46.7188 0.320312V8.3203ZM48.5582 6.7315L49.8471 11.044L57.5121 8.7529L56.223 4.4404L48.5582 6.7315ZM49.7885 8.972L48.9682 12.4173L56.7506 14.2702L57.5709 10.8249L49.7885 8.972ZM48.9944 12.3131C48.8519 12.8476 48.7655 13.4213 48.7655 14.0234H56.7656C56.7656 14.1881 56.7418 14.3086 56.7242 14.3744L48.9944 12.3131ZM48.7655 14.0234C48.7655 15.0693 49.0893 16.5063 50.3241 17.6177C51.4645 18.644 52.7874 18.8455 53.6031 18.8659L53.8031 10.8684C53.9937 10.8732 54.8479 10.9263 55.6758 11.6714C56.5981 12.5015 56.7656 13.5244 56.7656 14.0234H48.7655ZM57.5922 15.8025L59.8188 6.5447L52.0406 4.674L49.8139 13.9318L57.5922 15.8025ZM57.8209 9.134C58.0592 9.0061 58.5423 8.8092 59.3798 8.6062L57.4951 0.831352C56.2701 1.12833 55.0812 1.52512 54.0383 2.08473L57.8209 9.134ZM59.4352 8.5923C60.0976 8.4217 60.8829 8.3203 61.8125 8.3203V0.320312C60.3046 0.320312 58.8398 0.484542 57.4397 0.845182L59.4352 8.5923ZM61.8125 8.3203C63.7821 8.3203 64.4624 8.6845 64.55 8.7471L69.2 2.23725C67.1001 0.737373 64.4054 0.320312 61.8125 0.320312V8.3203ZM64.6029 8.7843C64.5654 8.7584 64.5793 8.7446 64.6302 8.8451C64.6935 8.9703 64.8061 9.2651 64.8682 9.8245L72.8192 8.9411C72.537 6.4012 71.5229 3.83979 69.147 2.20008L64.6029 8.7843ZM64.8804 9.9233C64.9219 10.2272 64.9885 10.7655 65.0821 11.5611L73.0273 10.6264C72.9334 9.8283 72.8594 9.2259 72.8071 8.8424L64.8804 9.9233ZM65.0814 11.5561C66.5192 23.9118 67.1875 30.8032 67.1875 32.6797H75.1875C75.1875 30.2124 74.4337 22.7132 73.0278 10.6314L65.0814 11.5561ZM68.2855 29.9266C67.5132 30.7408 66.1974 31.4219 63.6875 31.4219V39.4219C67.7088 39.4219 71.393 38.2748 74.0894 35.4327L68.2855 29.9266ZM96.4299 4.7656L99.853 2.69716L98.6859 0.765623H96.4299V4.7656ZM97.438 7.2266L93.5529 8.1807L93.5549 8.1887L93.5569 8.1967L97.438 7.2266ZM96.828 13.1562L93.681 10.6877L93.666 10.707L93.651 10.7264L96.828 13.1562ZM83.9843 15.4062L81.1559 18.2347L82.3275 19.4062H83.9843V15.4062ZM95.188 15.4062L98.647 13.3977L97.4899 11.4062H95.188V15.4062ZM95.914 17.2344L99.808 16.3182L99.7899 16.2428L99.769 16.168L95.914 17.2344ZM95.164 23.7266V27.7266H97.323L98.5079 25.9223L95.164 23.7266ZM85.25 24.0078L86.0484 27.9273L86.0831 27.9202L86.1176 27.9126L85.25 24.0078ZM83.6797 24.4531L81.5833 21.0465L81.4915 21.103L81.4028 21.1644L83.6797 24.4531ZM83.703 25.5078L81.7186 28.9808L83.2592 29.8612L84.946 29.3098L83.703 25.5078ZM86.2578 24.9453L85.886 20.9626L85.828 20.968L85.7702 20.9751L86.2578 24.9453ZM96.664 24.7812L99.927 22.4671L98.731 20.7812H96.664V24.7812ZM96.5 35.0234V39.0234H98.2879L99.481 37.6906L96.5 35.0234ZM74.2811 33.6172L76.78 30.4937L76.7612 30.4787L76.7422 30.4639L74.2811 33.6172ZM82.9061 8.7656H96.4299V0.765623H82.9061V8.7656ZM93.006 6.8341C93.241 7.2222 93.4259 7.6642 93.5529 8.1807L101.322 6.2725C101.011 5.0076 100.525 3.80904 99.853 2.69716L93.006 6.8341ZM93.5569 8.1967C93.7169 8.8388 93.7659 9.2945 93.7659 9.5938H101.766C101.766 8.4867 101.595 7.3643 101.318 6.2564L93.5569 8.1967ZM93.7659 9.5938C93.7659 10.1315 93.7109 10.4672 93.6629 10.65C93.6169 10.8257 93.593 10.7996 93.681 10.6877L99.976 15.6248C101.386 13.8263 101.766 11.5967 101.766 9.5938H93.7659ZM93.651 10.7264C93.716 10.6413 93.8509 10.5134 94.0439 10.4238C94.2239 10.3402 94.322 10.3516 94.25 10.3516V18.3516C96.454 18.3516 98.552 17.487 100.006 15.5861L93.651 10.7264ZM94.25 10.3516H84.8047V18.3516H94.25V10.3516ZM84.8047 10.3516C84.1023 10.3516 82.8383 10.4707 81.6868 11.3733C80.3498 12.4212 79.9375 13.8931 79.9375 15.0312H87.9375C87.9375 15.7163 87.6697 16.8483 86.6217 17.6697C85.7592 18.3457 84.9289 18.3516 84.8047 18.3516V10.3516ZM79.9375 15.0312V15.2188H87.9375V15.0312H79.9375ZM79.9375 15.2188C79.9375 15.4587 79.9545 15.8496 80.0686 16.3061C80.1767 16.7383 80.4448 17.5236 81.1559 18.2347L86.8127 12.5778C87.4926 13.2577 87.7374 13.9961 87.8298 14.3658C87.9283 14.7598 87.9375 15.0726 87.9375 15.2188H79.9375ZM83.9843 19.4062H95.188V11.4062H83.9843V19.4062ZM91.7283 17.4148C91.7888 17.5189 91.9165 17.7864 92.0589 18.3007L99.769 16.168C99.505 15.2136 99.149 14.2624 98.647 13.3977L91.7283 17.4148ZM92.0199 18.1505C92.1579 18.734 92.1949 19.1286 92.1949 19.3672H100.195C100.195 18.3558 100.045 17.3285 99.808 16.3182L92.0199 18.1505ZM92.1949 19.3672C92.1949 20.802 91.9192 21.3807 91.8206 21.5308L98.5079 25.9223C99.7839 23.9787 100.195 21.6512 100.195 19.3672H92.1949ZM95.164 19.7266H90.078V27.7266H95.164V19.7266ZM90.078 19.7266C87.7494 19.7266 85.7162 19.8066 84.3822 20.1031L86.1176 27.9126C86.4711 27.834 87.6566 27.7266 90.078 27.7266V19.7266ZM84.4516 20.0883C83.9807 20.1842 83.5305 20.2872 83.1333 20.3998C82.8523 20.4795 82.1974 20.6686 81.5833 21.0465L85.776 27.8598C85.6327 27.9479 85.5161 28.0051 85.4487 28.0363C85.3777 28.0691 85.3256 28.0894 85.3009 28.0986C85.2553 28.1158 85.2534 28.114 85.3159 28.0963C85.3734 28.08 85.4625 28.0566 85.5896 28.0269C85.7153 27.9974 85.8675 27.9642 86.0484 27.9273L84.4516 20.0883ZM81.4028 21.1644C80.2828 21.9397 79.375 23.2751 79.375 24.9922H87.375C87.375 25.5298 87.2424 26.1148 86.9333 26.6616C86.6342 27.1907 86.2547 27.5355 85.9565 27.7419L81.4028 21.1644ZM79.375 24.9922C79.375 26.8896 80.4802 28.2731 81.7186 28.9808L85.6877 22.0348C86.011 22.2196 86.4643 22.5606 86.8316 23.1377C87.2156 23.7412 87.375 24.3994 87.375 24.9922H79.375ZM84.946 29.3098C85.5009 29.1284 86.0986 28.9949 86.7453 28.9155L85.7702 20.9751C84.6357 21.1145 83.5302 21.356 82.4601 21.7058L84.946 29.3098ZM86.6295 28.928C87.6594 28.8319 88.8071 28.7812 90.078 28.7812V20.7812C88.599 20.7812 87.1999 20.84 85.886 20.9626L86.6295 28.928ZM90.078 28.7812H96.664V20.7812H90.078V28.7812ZM93.401 27.0954C93.806 27.6663 94.0939 28.4446 94.0939 29.6328H102.094C102.094 27.0398 101.428 24.5837 99.927 22.4671L93.401 27.0954ZM94.0939 29.6328C94.0939 30.3586 94.004 31.0172 93.838 31.622L101.553 33.7374C101.918 32.4047 102.094 31.0321 102.094 29.6328H94.0939ZM93.838 31.622C93.694 32.1453 93.544 32.3283 93.519 32.3563L99.481 37.6906C100.518 36.531 101.165 35.1516 101.553 33.7374L93.838 31.622ZM96.5 31.0234H78.9453V39.0234H96.5V31.0234ZM78.9453 31.0234C77.6485 31.0234 77.0587 30.7166 76.78 30.4937L71.7825 36.7407C73.8476 38.3928 76.3671 39.0234 78.9453 39.0234V31.0234ZM76.7422 30.4639C76.6233 30.3711 76.3593 30.1811 76.3593 29.2109H68.3593C68.3593 32.1158 69.3765 34.8633 71.8201 36.7705L76.7422 30.4639ZM76.3593 29.2109V6.9219H68.3593V29.2109H76.3593ZM76.3593 6.9219C76.3593 7.5506 76.1644 8.1397 75.8548 8.607C75.5726 9.0328 75.2697 9.2486 75.1514 9.3239C75.031 9.4005 74.9959 9.3992 75.1156 9.3579C75.2273 9.3193 75.4221 9.2635 75.722 9.2036L74.153 1.35893C73.1071 1.56811 71.899 1.9111 70.8564 2.57457C69.7317 3.29027 68.3593 4.7121 68.3593 6.9219H76.3593ZM75.722 9.2036C77.0342 8.9411 79.3618 8.7656 82.9061 8.7656V0.765623C79.263 0.765623 76.2783 0.933872 74.153 1.35893L75.722 9.2036ZM112.93 27.2891H116.93V23.4345L113.078 23.2918L112.93 27.2891ZM112.93 33.2188L115.554 36.2372L116.93 35.0413V33.2188H112.93ZM110.047 34.7891L108.723 31.0144L108.716 31.0171L108.708 31.0199L110.047 34.7891ZM101.281 34.2734L103.39 30.8742L103.376 30.8658L103.362 30.8574L101.281 34.2734ZM123.57 4.7656L127.079 2.84558L125.941 0.765623H123.57V4.7656ZM124.578 7.5547L120.665 8.3847L120.668 8.3969L124.578 7.5547ZM111.242 16.7656L108.414 19.5941L109.585 20.7656H111.242V16.7656ZM121.602 16.7656L125.052 14.7427L123.893 12.7656H121.602V16.7656ZM121.367 26.3281V30.3281H123.286L124.487 28.8319L121.367 26.3281ZM109.883 26.3281V22.3281H108.226L107.054 23.4997L109.883 26.3281ZM110.258 27.1953L109.762 31.1644L109.771 31.1656L109.781 31.1668L110.258 27.1953ZM108.93 27.2891V33.2188H116.93V27.2891H108.93ZM110.305 30.2003C110.074 30.4016 109.601 30.7066 108.723 31.0144L111.37 38.5637C112.899 38.0278 114.348 37.2859 115.554 36.2372L110.305 30.2003ZM108.708 31.0199C108.075 31.2446 107.105 31.4219 105.688 31.4219V39.4219C107.708 39.4219 109.644 39.1772 111.386 38.5583L108.708 31.0199ZM105.688 31.4219C104.599 31.4219 103.888 31.1836 103.39 30.8742L99.1729 37.6727C101.143 38.8945 103.37 39.4219 105.688 39.4219V31.4219ZM103.362 30.8574C103.256 30.7928 103.208 30.7487 103.196 30.7362C103.185 30.7257 103.199 30.7372 103.218 30.7707C103.237 30.8048 103.247 30.8337 103.25 30.8441C103.252 30.8521 103.242 30.8202 103.242 30.7344H95.2419C95.2419 33.727 96.707 36.1703 99.2 37.6895L103.362 30.8574ZM103.242 30.7344V6.9219H95.2419V30.7344H103.242ZM103.242 6.9219C103.242 8.5116 102.17 9.2805 101.991 9.3903C101.845 9.4796 101.973 9.369 102.684 9.224C104.039 8.9476 106.354 8.7656 109.812 8.7656V0.765623C106.224 0.765623 103.254 0.942982 101.085 1.3854C100.035 1.59974 98.842 1.93836 97.815 2.5667C96.755 3.21562 95.2419 4.6134 95.2419 6.9219H103.242ZM109.812 8.7656H123.57V0.765623H109.812V8.7656ZM120.061 6.6857C120.307 7.1348 120.518 7.6906 120.665 8.3847L128.491 6.7247C128.201 5.3562 127.74 4.0527 127.079 2.84558L120.061 6.6857ZM120.668 8.3969C120.843 9.2082 120.906 9.8331 120.906 10.2969H128.906C128.906 9.1357 128.751 7.9324 128.488 6.7125L120.668 8.3969ZM120.906 10.2969C120.906 11.5883 120.612 11.8097 120.722 11.6836C120.786 11.6112 120.851 11.5835 120.836 11.5892C120.797 11.6039 120.61 11.6641 120.195 11.6641V19.6641C122.528 19.6641 124.966 18.9757 126.735 16.9609C128.416 15.0458 128.906 12.5836 128.906 10.2969H120.906ZM120.195 11.6641H112.086V19.6641H120.195V11.6641ZM112.086 11.6641C111.324 11.6641 110.007 11.81 108.841 12.7919C107.544 13.8847 107.195 15.35 107.195 16.4141H115.195C115.195 16.9781 114.995 18.0684 113.995 18.9112C113.125 19.6431 112.254 19.6641 112.086 19.6641V11.6641ZM107.195 16.4141V16.5781H115.195V16.4141H107.195ZM107.195 16.5781C107.195 16.8181 107.212 17.209 107.326 17.6655C107.435 18.0977 107.703 18.883 108.414 19.5941L114.071 13.9372C114.75 14.617 114.995 15.3554 115.088 15.7252C115.186 16.1191 115.195 16.4319 115.195 16.5781H107.195ZM111.242 20.7656H121.602V12.7656H111.242V20.7656ZM118.151 18.7885C118.559 19.4851 118.797 20.3079 118.797 21.3594H126.797C126.797 19.0046 126.238 16.7649 125.052 14.7427L118.151 18.7885ZM118.797 21.3594C118.797 22.9287 118.443 23.5814 118.248 23.8243L124.487 28.8319C126.198 26.6998 126.797 24.0401 126.797 21.3594H118.797ZM121.367 22.3281H109.883V30.3281H121.367V22.3281ZM107.054 23.4997C106.287 24.2675 105.695 25.3901 105.695 26.75H113.695C113.695 27.2227 113.597 27.7028 113.397 28.1519C113.202 28.5917 112.945 28.9229 112.711 29.1566L107.054 23.4997ZM105.695 26.75C105.695 28.033 106.252 29.3131 107.353 30.185C108.262 30.9048 109.232 31.0982 109.762 31.1644L110.754 23.2262C110.909 23.2456 111.597 23.3413 112.319 23.9126C112.714 24.2254 113.088 24.659 113.35 25.2153C113.609 25.7661 113.695 26.3036 113.695 26.75H105.695ZM109.781 31.1668C110.361 31.2364 110.961 31.2656 111.57 31.2656V23.2656C111.21 23.2656 110.936 23.248 110.734 23.2238L109.781 31.1668ZM111.57 31.2656C112.012 31.2656 112.416 31.2728 112.782 31.2863L113.078 23.2918C112.6 23.2741 112.097 23.2656 111.57 23.2656V31.2656ZM139.766 33.2188L142.39 36.2372L143.766 35.0413V33.2188H139.766ZM128.117 34.2734L130.265 30.8988L130.232 30.8778L130.198 30.8574L128.117 34.2734ZM126.078 6.5469L123.453 3.52845L122.078 4.7244V6.5469H126.078ZM137.75 5.4688L139.905 2.09895L139.857 2.06817L139.808 2.03878L137.75 5.4688ZM135.766 9.0078V33.2188H143.766V9.0078H135.766ZM137.141 30.2003C136.909 30.4016 136.437 30.7066 135.559 31.0144L138.206 38.5637C139.735 38.0278 141.184 37.2859 142.39 36.2372L137.141 30.2003ZM135.559 31.0144C134.901 31.2453 133.915 31.4219 132.5 31.4219V39.4219C134.523 39.4219 136.459 39.1766 138.206 38.5637L135.559 31.0144ZM132.5 31.4219C131.384 31.4219 130.705 31.179 130.265 30.8988L125.97 37.6481C127.936 38.8992 130.178 39.4219 132.5 39.4219V31.4219ZM130.198 30.8574C130.09 30.7913 130.04 30.7459 130.026 30.7322C130.014 30.7206 130.028 30.7318 130.048 30.7666C130.069 30.802 130.08 30.8339 130.083 30.8493C130.087 30.8623 130.078 30.8366 130.078 30.7578H122.078C122.078 33.752 123.558 36.1797 126.036 37.6895L130.198 30.8574ZM130.078 30.7578V6.5469H122.078V30.7578H130.078ZM128.703 9.5653C128.934 9.364 129.407 9.059 130.285 8.7512L127.637 1.20189C126.109 1.73785 124.659 2.4797 123.453 3.52845L128.703 9.5653ZM130.285 8.7512C130.946 8.5192 131.926 8.3438 133.32 8.3438V0.343752C131.308 0.343752 129.382 0.590212 127.637 1.20189L130.285 8.7512ZM133.32 8.3438C134.422 8.3438 135.162 8.5806 135.692 8.8987L139.808 2.03878C137.838 0.856953 135.625 0.343752 133.32 0.343752V8.3438ZM135.595 8.8385C135.709 8.9113 135.765 8.9635 135.787 8.9854C135.807 9.0055 135.8 9.0031 135.786 8.9776C135.771 8.9514 135.763 8.9269 135.76 8.9157C135.757 8.9066 135.766 8.9329 135.766 9.0078H143.766C143.766 6.0428 142.311 3.63752 139.905 2.09895L135.595 8.8385ZM142.906 33.6406L140.102 36.4927L140.113 36.5043L140.125 36.5158L142.906 33.6406ZM141.5 6.5469L138.911 3.4977L137.5 4.6958V6.5469H141.5ZM144.523 4.9297L145.728 8.744L145.743 8.7392L145.759 8.7342L144.523 4.9297ZM153.055 5.75L155.449 2.54578L155.415 2.52005L155.38 2.49507L153.055 5.75ZM155.188 22.9766L155.543 26.9607L159.188 26.6353V22.9766H155.188ZM152.609 23.7266L154.345 27.3306L154.372 27.3176L154.398 27.3043L152.609 23.7266ZM151.789 25.6719L149.653 29.0538L152.122 30.6129L154.359 28.7371L151.789 25.6719ZM164.234 23.7266L167.711 21.7485L166.561 19.7266H164.234V23.7266ZM163.977 35.0234V39.0234H165.761L166.954 37.6951L163.977 35.0234ZM146.938 31.0234C146.418 31.0234 146.1 30.9537 145.927 30.8941C145.77 30.8402 145.712 30.7898 145.687 30.7655L140.125 36.5158C142.032 38.3604 144.496 39.0234 146.938 39.0234V31.0234ZM145.711 30.7885C145.808 30.8845 145.5 30.7059 145.5 29.4688H137.5C137.5 31.9504 138.129 34.553 140.102 36.4927L145.711 30.7885ZM145.5 29.4688V6.5469H137.5V29.4688H145.5ZM144.089 9.5961C144.456 9.2844 144.974 8.982 145.728 8.744L143.319 1.11536C141.697 1.62742 140.2 2.40315 138.911 3.4977L144.089 9.5961ZM145.759 8.7342C146.558 8.4748 147.383 8.3438 148.25 8.3438V0.343752C146.555 0.343752 144.895 0.603352 143.288 1.12519L145.759 8.7342ZM148.25 8.3438C149.455 8.3438 150.207 8.6314 150.73 9.0049L155.38 2.49507C153.278 0.993613 150.826 0.343752 148.25 0.343752V8.3438ZM150.66 8.9542C151.007 9.2132 151.188 9.4597 151.188 10.1562H159.188C159.188 7.1028 157.946 4.4118 155.449 2.54578L150.66 8.9542ZM151.188 10.1562V22.9766H159.188V10.1562H151.188ZM154.832 18.9924C153.422 19.1183 152.079 19.5196 150.821 20.1489L154.398 27.3043C154.827 27.0897 155.203 26.9911 155.543 26.9607L154.832 18.9924ZM150.874 20.1226C150.251 20.4227 149.489 20.8621 148.832 21.5192C148.15 22.2007 147.344 23.3736 147.344 24.9922H155.344C155.344 26.1733 154.748 26.9165 154.489 27.1761C154.253 27.4114 154.124 27.4366 154.345 27.3306L150.874 20.1226ZM147.344 24.9922C147.344 27.0621 148.615 28.3984 149.653 29.0538L153.925 22.2899C154.123 22.4148 154.483 22.6843 154.801 23.1692C155.145 23.6938 155.344 24.3301 155.344 24.9922H147.344ZM154.359 28.7371C154.898 28.2853 156.112 27.7266 158.68 27.7266V19.7266C155.153 19.7266 151.774 20.4647 149.219 22.6066L154.359 28.7371ZM158.68 27.7266H164.234V19.7266H158.68V27.7266ZM160.758 25.7047C161.482 26.978 161.781 28.1539 161.781 29.2812H169.781C169.781 26.6273 169.049 24.1002 167.711 21.7485L160.758 25.7047ZM161.781 29.2812C161.781 29.7608 161.696 30.4208 161.445 31.2926L169.133 33.5043C169.539 32.0948 169.781 30.6767 169.781 29.2812H161.781ZM161.445 31.2926C161.335 31.6754 161.226 31.9433 161.137 32.1213C161.048 32.2991 160.993 32.3589 161 32.3518L166.954 37.6951C168.044 36.4803 168.707 34.984 169.133 33.5043L161.445 31.2926ZM163.977 31.0234H146.938V39.0234H163.977V31.0234ZM190.836 4.7656L194.26 2.69716L193.093 0.765623H190.836V4.7656ZM191.844 7.2266L187.959 8.1807L187.961 8.1887L187.963 8.1967L191.844 7.2266ZM191.234 13.1562L188.087 10.6877L188.072 10.707L188.057 10.7264L191.234 13.1562ZM178.391 15.4062L175.562 18.2347L176.734 19.4062H178.391V15.4062ZM189.594 15.4062L193.053 13.3977L191.897 11.4062H189.594V15.4062ZM190.32 17.2344L194.214 16.3182L194.196 16.2428L194.176 16.168L190.32 17.2344ZM189.57 23.7266V27.7266H191.729L192.914 25.9223L189.57 23.7266ZM179.656 24.0078L180.455 27.9273L180.489 27.9202L180.524 27.9126L179.656 24.0078ZM178.086 24.4531L175.99 21.0465L175.898 21.103L175.809 21.1644L178.086 24.4531ZM178.109 25.5078L176.125 28.9808L177.666 29.8612L179.352 29.3098L178.109 25.5078ZM180.664 24.9453L180.292 20.9626L180.234 20.968L180.176 20.9751L180.664 24.9453ZM191.07 24.7812L194.333 22.4671L193.137 20.7812H191.07V24.7812ZM190.906 35.0234V39.0234H192.695L193.887 37.6906L190.906 35.0234ZM168.688 33.6172L171.186 30.4937L171.168 30.4787L171.149 30.4639L168.688 33.6172ZM177.312 8.7656H190.836V0.765623H177.312V8.7656ZM187.412 6.8341C187.647 7.2222 187.832 7.6642 187.959 8.1807L195.728 6.2725C195.418 5.0076 194.931 3.80904 194.26 2.69716L187.412 6.8341ZM187.963 8.1967C188.124 8.8388 188.172 9.2945 188.172 9.5938H196.172C196.172 8.4867 196.001 7.3643 195.724 6.2564L187.963 8.1967ZM188.172 9.5938C188.172 10.1315 188.117 10.4672 188.069 10.65C188.023 10.8257 187.999 10.7996 188.087 10.6877L194.382 15.6248C195.792 13.8263 196.172 11.5967 196.172 9.5938H188.172ZM188.057 10.7264C188.122 10.6413 188.257 10.5134 188.45 10.4238C188.631 10.3402 188.728 10.3516 188.656 10.3516V18.3516C190.86 18.3516 192.958 17.487 194.412 15.5861L188.057 10.7264ZM188.656 10.3516H179.211V18.3516H188.656V10.3516ZM179.211 10.3516C178.509 10.3516 177.245 10.4707 176.093 11.3733C174.756 12.4212 174.344 13.8931 174.344 15.0312H182.344C182.344 15.7163 182.076 16.8483 181.028 17.6697C180.166 18.3457 179.335 18.3516 179.211 18.3516V10.3516ZM174.344 15.0312V15.2188H182.344V15.0312H174.344ZM174.344 15.2188C174.344 15.4587 174.361 15.8496 174.475 16.3061C174.583 16.7383 174.851 17.5236 175.562 18.2347L181.219 12.5778C181.899 13.2577 182.144 13.9961 182.236 14.3658C182.335 14.7598 182.344 15.0726 182.344 15.2188H174.344ZM178.391 19.4062H189.594V11.4062H178.391V19.4062ZM186.135 17.4148C186.195 17.5189 186.323 17.7864 186.465 18.3007L194.176 16.168C193.912 15.2136 193.555 14.2624 193.053 13.3977L186.135 17.4148ZM186.427 18.1505C186.564 18.734 186.602 19.1286 186.602 19.3672H194.602C194.602 18.3558 194.452 17.3285 194.214 16.3182L186.427 18.1505ZM186.602 19.3672C186.602 20.802 186.325 21.3807 186.227 21.5308L192.914 25.9223C194.19 23.9787 194.602 21.6512 194.602 19.3672H186.602ZM189.57 19.7266H184.484V27.7266H189.57V19.7266ZM184.484 19.7266C182.156 19.7266 180.123 19.8066 178.789 20.1031L180.524 27.9126C180.877 27.834 182.063 27.7266 184.484 27.7266V19.7266ZM178.858 20.0883C178.387 20.1842 177.937 20.2872 177.54 20.3998C177.259 20.4795 176.604 20.6686 175.99 21.0465L180.182 27.8598C180.039 27.9479 179.922 28.0051 179.855 28.0363C179.784 28.0691 179.732 28.0894 179.707 28.0986C179.662 28.1158 179.66 28.114 179.722 28.0963C179.78 28.08 179.869 28.0566 179.996 28.0269C180.122 27.9974 180.274 27.9642 180.455 27.9273L178.858 20.0883ZM175.809 21.1644C174.689 21.9397 173.781 23.2751 173.781 24.9922H181.781C181.781 25.5298 181.649 26.1148 181.34 26.6616C181.041 27.1907 180.661 27.5355 180.363 27.7419L175.809 21.1644ZM173.781 24.9922C173.781 26.8896 174.886 28.2731 176.125 28.9808L180.094 22.0348C180.417 22.2196 180.871 22.5606 181.238 23.1377C181.622 23.7412 181.781 24.3994 181.781 24.9922H173.781ZM179.352 29.3098C179.907 29.1284 180.505 28.9949 181.152 28.9155L180.176 20.9751C179.042 21.1145 177.937 21.356 176.866 21.7058L179.352 29.3098ZM181.036 28.928C182.066 28.8319 183.213 28.7812 184.484 28.7812V20.7812C183.005 20.7812 181.606 20.84 180.292 20.9626L181.036 28.928ZM184.484 28.7812H191.07V20.7812H184.484V28.7812ZM187.808 27.0954C188.213 27.6663 188.5 28.4446 188.5 29.6328H196.5C196.5 27.0398 195.834 24.5837 194.333 22.4671L187.808 27.0954ZM188.5 29.6328C188.5 30.3586 188.41 31.0172 188.244 31.622L195.959 33.7374C196.325 32.4047 196.5 31.0321 196.5 29.6328H188.5ZM188.244 31.622C188.1 32.1453 187.95 32.3283 187.925 32.3563L193.887 37.6906C194.925 36.531 195.571 35.1516 195.959 33.7374L188.244 31.622ZM190.906 31.0234H173.352V39.0234H190.906V31.0234ZM173.352 31.0234C172.055 31.0234 171.465 30.7166 171.186 30.4937L166.189 36.7407C168.254 38.3928 170.773 39.0234 173.352 39.0234V31.0234ZM171.149 30.4639C171.03 30.3711 170.766 30.1811 170.766 29.2109H162.766C162.766 32.1158 163.783 34.8633 166.226 36.7705L171.149 30.4639ZM170.766 29.2109V6.9219H162.766V29.2109H170.766ZM170.766 6.9219C170.766 7.5506 170.571 8.1397 170.261 8.607C169.979 9.0328 169.676 9.2486 169.558 9.3239C169.437 9.4005 169.402 9.3992 169.522 9.3579C169.634 9.3193 169.828 9.2635 170.128 9.2036L168.559 1.35893C167.513 1.56811 166.305 1.9111 165.263 2.57457C164.138 3.29027 162.766 4.7121 162.766 6.9219H170.766ZM170.128 9.2036C171.44 8.9411 173.768 8.7656 177.312 8.7656V0.765623C173.669 0.765623 170.685 0.933872 168.559 1.35893L170.128 9.2036ZM206.375 26.4688L202.573 27.7117L203.657 31.0284L207.091 30.4042L206.375 26.4688ZM206.727 24.2422L203.129 25.9898L203.159 26.0523L203.191 26.1137L206.727 24.2422ZM205.531 22.6953L208.226 19.7395L208.216 19.7299L208.205 19.7205L205.531 22.6953ZM196.602 21.4062L194.792 24.9736L196.378 25.7779L198.037 25.1396L196.602 21.4062ZM197.562 6.6406L195.386 3.28452L195.38 3.28845L197.562 6.6406ZM214.203 5.0469L212.994 8.8598L213.008 8.8643L213.022 8.8686L214.203 5.0469ZM218.914 7.3438L222.691 6.0274L222.299 4.9007L221.353 4.1733L218.914 7.3438ZM217.719 15.7578L215.349 18.9804L218.078 20.9871L220.507 18.6258L217.719 15.7578ZM208.742 14.1641L207.387 10.4005L207.362 10.4095L207.338 10.4187L208.742 14.1641ZM208.25 15.2188L204.505 16.6232L205.766 19.9875L209.246 19.0927L208.25 15.2188ZM217.812 17.1641L220.23 13.9773L220.219 13.9691L220.208 13.9609L217.812 17.1641ZM217.531 32.4453L220.041 35.5598L220.05 35.5527L220.059 35.5455L217.531 32.4453ZM200.398 35.0938L201.209 31.1767L201.193 31.1734L201.176 31.1701L200.398 35.0938ZM195.102 33.1719L191.806 35.4393L192.356 36.2384L193.211 36.6968L195.102 33.1719ZM203.891 22.9531L201.716 26.3101L201.726 26.3171L201.737 26.3239L203.891 22.9531ZM207.091 30.4042C207.814 30.2728 208.878 29.939 209.784 29.0335C210.781 28.0359 211.148 26.7867 211.148 25.6953H203.148C203.148 25.0258 203.387 24.1165 204.127 23.3767C204.774 22.7289 205.452 22.571 205.659 22.5333L207.091 30.4042ZM211.148 25.6953C211.148 24.4075 210.74 23.2737 210.262 22.3706L203.191 26.1137C203.228 26.1827 203.22 26.183 203.202 26.1191C203.182 26.053 203.148 25.9064 203.148 25.6953H211.148ZM210.325 22.4946C209.801 21.4162 209.065 20.5045 208.226 19.7395L202.836 25.6511C203.06 25.8549 203.121 25.9744 203.129 25.9898L210.325 22.4946ZM208.205 19.7205C205.898 17.6468 202.969 16.8203 199.883 16.8203V24.8203C201.546 24.8203 202.383 25.2438 202.857 25.6702L208.205 19.7205ZM199.883 16.8203C198.258 16.8203 196.674 17.0929 195.166 17.6729L198.037 25.1396C198.561 24.9384 199.164 24.8203 199.883 24.8203V16.8203ZM198.411 17.8389C198.143 17.703 197.844 17.4624 197.544 16.9055L190.503 20.7038C191.484 22.522 192.904 24.0157 194.792 24.9736L198.411 17.8389ZM197.544 16.9055C197.224 16.313 197.062 15.6861 197.062 14.9609H189.062C189.062 16.9858 189.541 18.9213 190.503 20.7038L197.544 16.9055ZM197.062 14.9609C197.062 12.7136 197.884 11.2043 199.745 9.9928L195.38 3.28845C191.241 5.9832 189.062 10.0207 189.062 14.9609H197.062ZM199.739 9.9967C201.534 8.8328 203.914 8.1328 207.102 8.1328V0.132812C202.727 0.132812 198.748 1.10465 195.386 3.28452L199.739 9.9967ZM207.102 8.1328C209.653 8.1328 211.584 8.4126 212.994 8.8598L215.412 1.23395C212.979 0.462423 210.175 0.132812 207.102 0.132812V8.1328ZM213.022 8.8686C214.622 9.3629 215.73 9.941 216.475 10.5142L221.353 4.1733C219.661 2.87147 217.628 1.91838 215.384 1.22511L213.022 8.8686ZM215.137 8.6601C215.346 9.2613 215.453 9.8862 215.453 10.5547H223.453C223.453 9.0044 223.2 7.4887 222.691 6.0274L215.137 8.6601ZM215.453 10.5547C215.453 11.3086 215.352 11.8881 215.207 12.3329L222.809 14.8234C223.257 13.4556 223.453 12.0195 223.453 10.5547H215.453ZM215.207 12.3329C215.068 12.7554 214.939 12.8812 214.93 12.8898L220.507 18.6258C221.623 17.5406 222.354 16.2134 222.809 14.8234L215.207 12.3329ZM220.088 12.5352C218.946 11.6954 217.39 11.1413 215.958 10.723L213.714 18.402C214.32 18.5789 214.762 18.7341 215.068 18.861C215.401 18.999 215.447 19.0523 215.349 18.9804L220.088 12.5352ZM215.958 10.723C214.296 10.2375 212.646 9.9531 211.039 9.9531V17.9531C211.714 17.9531 212.595 18.075 213.714 18.402L215.958 10.723ZM211.039 9.9531C209.978 9.9531 208.53 9.9893 207.387 10.4005L210.097 17.9276C210.003 17.9615 209.931 17.9812 209.891 17.9915C209.85 18.002 209.826 18.0064 209.823 18.0068C209.822 18.007 209.868 17.9989 209.975 17.9891C210.194 17.969 210.539 17.9531 211.039 17.9531V9.9531ZM207.338 10.4187C206.752 10.6383 205.954 11.0477 205.283 11.8304C204.548 12.6885 204.18 13.7488 204.18 14.8203H212.18C212.18 15.595 211.905 16.3974 211.357 17.0368C210.874 17.6007 210.357 17.8305 210.147 17.9094L207.338 10.4187ZM204.18 14.8203C204.18 15.4147 204.281 16.0255 204.505 16.6232L211.995 13.8143C212.126 14.162 212.18 14.5072 212.18 14.8203H204.18ZM209.246 19.0927C209.345 19.0672 209.681 19.0078 210.359 19.0078V11.0078C209.319 11.0078 208.248 11.0891 207.254 11.3448L209.246 19.0927ZM210.359 19.0078C212.778 19.0078 214.354 19.572 215.417 20.3672L220.208 13.9609C217.428 11.8811 214.035 11.0078 210.359 11.0078V19.0078ZM215.395 20.3508C216.452 21.1525 217.211 22.4199 217.211 24.8984H225.211C225.211 20.502 223.704 16.6131 220.23 13.9773L215.395 20.3508ZM217.211 24.8984C217.211 26.6676 216.573 28.066 215.004 29.3451L220.059 35.5455C223.396 32.8246 225.211 29.1918 225.211 24.8984H217.211ZM215.021 29.3308C213.273 30.74 210.681 31.6562 206.82 31.6562V39.6562C211.929 39.6562 216.477 38.4319 220.041 35.5598L215.021 29.3308ZM206.82 31.6562C204.54 31.6562 202.683 31.4818 201.209 31.1767L199.588 39.0108C201.738 39.4557 204.163 39.6562 206.82 39.6562V31.6562ZM201.176 31.1701C199.774 30.892 198.381 30.392 196.992 29.6469L193.211 36.6968C195.259 37.7955 197.398 38.5768 199.62 39.0174L201.176 31.1701ZM198.397 30.9045C197.599 29.7446 197.344 28.7942 197.344 27.9922H189.344C189.344 30.6902 190.261 33.1929 191.806 35.4393L198.397 30.9045ZM197.344 27.9922C197.344 27.2443 197.551 26.8479 197.92 26.4934L192.377 20.7253C190.339 22.6834 189.344 25.2088 189.344 27.9922H197.344ZM197.92 26.4934C198.339 26.0909 198.806 25.875 199.578 25.875V17.875C196.85 17.875 194.364 18.8153 192.377 20.7253L197.92 26.4934ZM199.578 25.875C200.825 25.875 201.438 26.1302 201.716 26.3101L206.066 19.5961C204.125 18.3385 201.863 17.875 199.578 17.875V25.875ZM201.737 26.3239C201.887 26.4194 202.247 26.7141 202.573 27.7117L210.177 25.2258C209.441 22.9734 208.145 20.9243 206.044 19.5823L201.737 26.3239Z" fill="white"/>
</g>
</g>
<defs>
<filter id="filter0_d_197_902" x="0.46875" y="0.132812" width="228.742" height="47.5234" filterUnits="userSpaceOnUse" color-interpolation-filters="sRGB">
<feFlood flood-opacity="0" result="BackgroundImageFix"/>
<feColorMatrix in="SourceAlpha" type="matrix" values="0 0 0 0 0 0 0 0 0 0 0 0 0 0 0 0 0 0 127 0" result="hardAlpha"/>
<feOffset dy="4"/>
<feGaussianBlur stdDeviation="2"/>
<feComposite in2="hardAlpha" operator="out"/>
<feColorMatrix type="matrix" values="0 0 0 0 0 0 0 0 0 0 0 0 0 0 0 0 0 0 0.25 0"/>
<feBlend mode="normal" in2="BackgroundImageFix" result="effect1_dropShadow_197_902"/>
<feBlend mode="normal" in="SourceGraphic" in2="effect1_dropShadow_197_902" result="shape"/>
</filter>
</defs>
</svg>
