<svg width="24" height="24" viewBox="0 0 24 24" fill="none" xmlns="http://www.w3.org/2000/svg">
<mask id="mask0_105_1707" style="mask-type:alpha" maskUnits="userSpaceOnUse" x="0" y="0" width="24" height="24">
<rect width="24" height="24" fill="#D9D9D9"/>
</mask>
<g mask="url(#mask0_105_1707)">
<mask id="mask1_105_1707" style="mask-type:alpha" maskUnits="userSpaceOnUse" x="-1" y="0" width="25" height="24">
<rect x="-0.798828" width="24" height="24" fill="#D9D9D9"/>
</mask>
<g mask="url(#mask1_105_1707)">
<path d="M18.5012 8.925L14.2512 4.725L15.6512 3.325C16.0345 2.94167 16.5053 2.75 17.0637 2.75C17.622 2.75 18.0928 2.94167 18.4762 3.325L19.8762 4.725C20.2595 5.10833 20.4595 5.57083 20.4762 6.1125C20.4928 6.65417 20.3095 7.11667 19.9262 7.5L18.5012 8.925ZM3.20117 21C2.91784 21 2.68034 20.9042 2.48867 20.7125C2.29701 20.5208 2.20117 20.2833 2.20117 20V17.175C2.20117 17.0417 2.22617 16.9125 2.27617 16.7875C2.32617 16.6625 2.40117 16.55 2.50117 16.45L12.8012 6.15L17.0512 10.4L6.75117 20.7C6.65117 20.8 6.53867 20.875 6.41367 20.925C6.28867 20.975 6.15951 21 6.02617 21H3.20117Z" fill="#4A5568"/>
</g>
</g>
</svg>
