<svg width="24" height="24" viewBox="0 0 24 24" fill="none" xmlns="http://www.w3.org/2000/svg">
<mask id="mask0_222_814" style="mask-type:alpha" maskUnits="userSpaceOnUse" x="0" y="0" width="25" height="25">
<rect x="0.390625" y="0.233398" width="24" height="24" fill="#D9D9D9"/>
</mask>
<g mask="url(#mask0_222_814)">
<path d="M22.3906 8.2334H8.24062C7.20729 8.2334 6.30729 8.5584 5.54063 9.2084C4.77396 9.8584 4.39062 10.6834 4.39062 11.6834V18.2334L6.36563 11.6584C6.49896 11.2251 6.74479 10.8792 7.10313 10.6209C7.46146 10.3626 7.85729 10.2334 8.29063 10.2334H21.1906C21.874 10.2334 22.4115 10.5042 22.8031 11.0459C23.1948 11.5876 23.299 12.1751 23.1156 12.8084L21.3156 18.8084C21.1823 19.2417 20.9365 19.5876 20.5781 19.8459C20.2198 20.1042 19.824 20.2334 19.3906 20.2334H4.39062C3.84062 20.2334 3.36979 20.0376 2.97813 19.6459C2.58646 19.2542 2.39062 18.7834 2.39062 18.2334V6.2334C2.39062 5.6834 2.58646 5.21257 2.97813 4.8209C3.36979 4.42923 3.84062 4.2334 4.39062 4.2334H9.56563C9.83229 4.2334 10.0865 4.2834 10.3281 4.3834C10.5698 4.4834 10.7823 4.62507 10.9656 4.8084L12.3906 6.2334H20.3906C20.9406 6.2334 21.4115 6.42923 21.8031 6.8209C22.1948 7.21257 22.3906 7.6834 22.3906 8.2334Z" fill="#318BA6"/>
</g>
</svg>
